<svg xmlns="http://www.w3.org/2000/svg" width="100" height="100" viewBox="0 0 100 100"><circle fill="none" stroke="#00E0D0" stroke-miterlimit="10" stroke-dasharray="11.5967,11.5967" cx="50" cy="50" r="48"><animateTransform fill="remove" type="rotate" restart="always" calcMode="linear" additive="replace" accumulate="none" repeatCount="indefinite" dur="5s" to="360 50 50" from="0 50 50" attributeType="XML" attributeName="transform"/></circle><circle fill="#00E0D0" cx="50" cy="50" r="42.167"/><path fill="#FFF" d="M35.333 62.445c0 1.135-1.343 2.055-3 2.055s-3-.92-3-2.055v-24.89c0-1.135 1.343-2.055 3-2.055s3 .92 3 2.055v24.89z"><animateTransform fill="remove" type="translate" values="0,5;0,-5;0,5" restart="always" calcMode="linear" additive="replace" accumulate="none" repeatCount="indefinite" dur="1s" attributeType="XML" attributeName="transform"/></path><path fill="#FFF" d="M44.333 62.445c0 1.135-1.343 2.055-3 2.055s-3-.92-3-2.055v-24.89c0-1.135 1.343-2.055 3-2.055s3 .92 3 2.055v24.89z"><animateTransform fill="remove" type="translate" values="0,-5;0,5;0,-5" restart="always" calcMode="linear" additive="replace" accumulate="none" repeatCount="indefinite" dur="1s" attributeType="XML" attributeName="transform"/></path><path fill="#FFF" d="M53.333 62.445c0 1.135-1.343 2.055-3 2.055s-3-.92-3-2.055v-24.89c0-1.135 1.343-2.055 3-2.055s3 .92 3 2.055v24.89z"><animateTransform fill="remove" type="translate" values="0,5;0,-5;0,5" restart="always" calcMode="linear" additive="replace" accumulate="none" repeatCount="indefinite" dur="1s" attributeType="XML" attributeName="transform"/></path><path fill="#FFF" d="M62 62.445c0 1.135-1.343 2.055-2.999 2.055-1.657 0-3-.92-3-2.055v-24.89c0-1.135 1.343-2.055 3-2.055 1.656 0 2.999.92 2.999 2.055v24.89z"><animateTransform fill="remove" type="translate" values="0,-5;0,5;0,-5" restart="always" calcMode="linear" additive="replace" accumulate="none" repeatCount="indefinite" dur="1s" attributeType="XML" attributeName="transform"/></path><path fill="#FFF" d="M70.666 62.445c0 1.135-1.343 2.055-2.999 2.055-1.657 0-3-.92-3-2.055v-24.89c0-1.135 1.343-2.055 3-2.055 1.656 0 2.999.92 2.999 2.055v24.89z"><animateTransform fill="remove" type="translate" values="0,5;0,-5;0,5" restart="always" calcMode="linear" additive="replace" accumulate="none" repeatCount="indefinite" dur="1s" attributeType="XML" attributeName="transform"/></path></svg>